<mxfile host="65bd71144e">
    <diagram id="Oo4fUNWxEMAsW3-LBvVr" name="Page-1">
        <mxGraphModel dx="687" dy="748" grid="1" gridSize="10" guides="1" tooltips="1" connect="1" arrows="1" fold="1" page="1" pageScale="1" pageWidth="850" pageHeight="1100" math="0" shadow="0">
            <root>
                <mxCell id="0"/>
                <mxCell id="1" parent="0"/>
                <mxCell id="3" value="int id&lt;br&gt;string name&lt;br&gt;int quantity&lt;br&gt;string borrowed_users[]" style="whiteSpace=wrap;html=1;aspect=fixed;fontFamily=Helvetica;" vertex="1" parent="1">
                    <mxGeometry x="70" y="100" width="120" height="120" as="geometry"/>
                </mxCell>
                <mxCell id="4" value="int id&lt;br&gt;string name&lt;br&gt;string borrowed_books[]" style="whiteSpace=wrap;html=1;aspect=fixed;fontFamily=Helvetica;" vertex="1" parent="1">
                    <mxGeometry x="250" y="100" width="120" height="120" as="geometry"/>
                </mxCell>
                <mxCell id="5" value="" style="whiteSpace=wrap;html=1;aspect=fixed;fontFamily=Helvetica;" vertex="1" parent="1">
                    <mxGeometry x="70" y="300" width="360" height="360" as="geometry"/>
                </mxCell>
                <mxCell id="6" value="&lt;font style=&quot;font-size: 19px;&quot;&gt;&lt;b&gt;book&lt;/b&gt;&lt;/font&gt;" style="text;html=1;align=center;verticalAlign=middle;resizable=0;points=[];autosize=1;strokeColor=none;fillColor=none;fontFamily=Helvetica;" vertex="1" parent="1">
                    <mxGeometry x="40" y="50" width="70" height="40" as="geometry"/>
                </mxCell>
                <mxCell id="7" value="&lt;font style=&quot;font-size: 19px;&quot;&gt;&lt;b&gt;user&lt;/b&gt;&lt;/font&gt;" style="text;html=1;align=center;verticalAlign=middle;resizable=0;points=[];autosize=1;strokeColor=none;fillColor=none;fontFamily=Helvetica;" vertex="1" parent="1">
                    <mxGeometry x="220" y="50" width="60" height="40" as="geometry"/>
                </mxCell>
                <mxCell id="8" value="&lt;font style=&quot;font-size: 19px;&quot;&gt;&lt;b&gt;library&lt;/b&gt;&lt;/font&gt;" style="text;html=1;align=center;verticalAlign=middle;resizable=0;points=[];autosize=1;strokeColor=none;fillColor=none;fontFamily=Helvetica;" vertex="1" parent="1">
                    <mxGeometry x="50" y="250" width="80" height="40" as="geometry"/>
                </mxCell>
                <mxCell id="12" value="" style="rounded=0;whiteSpace=wrap;html=1;fontFamily=Helvetica;fontSize=19;" vertex="1" parent="1">
                    <mxGeometry x="110" y="340" width="120" height="250" as="geometry"/>
                </mxCell>
                <mxCell id="13" value="" style="rounded=0;whiteSpace=wrap;html=1;fontFamily=Helvetica;fontSize=19;" vertex="1" parent="1">
                    <mxGeometry x="260" y="340" width="120" height="250" as="geometry"/>
                </mxCell>
                <mxCell id="14" value="&lt;font style=&quot;font-size: 19px;&quot;&gt;&lt;b&gt;books&lt;/b&gt;&lt;/font&gt;" style="text;html=1;align=center;verticalAlign=middle;resizable=0;points=[];autosize=1;strokeColor=none;fillColor=none;fontFamily=Helvetica;" vertex="1" parent="1">
                    <mxGeometry x="85" y="300" width="80" height="40" as="geometry"/>
                </mxCell>
                <mxCell id="15" value="&lt;font style=&quot;font-size: 19px;&quot;&gt;&lt;b&gt;users&lt;/b&gt;&lt;/font&gt;" style="text;html=1;align=center;verticalAlign=middle;resizable=0;points=[];autosize=1;strokeColor=none;fillColor=none;fontFamily=Helvetica;" vertex="1" parent="1">
                    <mxGeometry x="235" y="300" width="70" height="40" as="geometry"/>
                </mxCell>
                <mxCell id="16" value="int id&lt;br&gt;string name&lt;br&gt;int quantity&lt;br&gt;string borrowed_users[]" style="whiteSpace=wrap;html=1;aspect=fixed;fontFamily=Helvetica;" vertex="1" parent="1">
                    <mxGeometry x="120" y="350" width="90" height="90" as="geometry"/>
                </mxCell>
                <mxCell id="17" value="int id&lt;br&gt;string name&lt;br&gt;string borrowed_books[]" style="whiteSpace=wrap;html=1;aspect=fixed;fontFamily=Helvetica;" vertex="1" parent="1">
                    <mxGeometry x="272.5" y="350" width="100" height="100" as="geometry"/>
                </mxCell>
                <mxCell id="18" value="" style="endArrow=none;html=1;fontFamily=Helvetica;fontSize=19;exitX=0;exitY=0.5;exitDx=0;exitDy=0;entryX=1;entryY=0.5;entryDx=0;entryDy=0;" edge="1" parent="1" source="13" target="13">
                    <mxGeometry width="50" height="50" relative="1" as="geometry">
                        <mxPoint x="300" y="400" as="sourcePoint"/>
                        <mxPoint x="350" y="350" as="targetPoint"/>
                    </mxGeometry>
                </mxCell>
                <mxCell id="19" value="" style="endArrow=none;html=1;fontFamily=Helvetica;fontSize=19;exitX=0;exitY=0.5;exitDx=0;exitDy=0;entryX=1;entryY=0.5;entryDx=0;entryDy=0;" edge="1" parent="1" source="12" target="12">
                    <mxGeometry width="50" height="50" relative="1" as="geometry">
                        <mxPoint x="300" y="400" as="sourcePoint"/>
                        <mxPoint x="350" y="350" as="targetPoint"/>
                    </mxGeometry>
                </mxCell>
                <mxCell id="20" value="" style="endArrow=none;dashed=1;html=1;dashPattern=1 3;strokeWidth=2;fontFamily=Helvetica;fontSize=19;entryX=0.5;entryY=0.6;entryDx=0;entryDy=0;entryPerimeter=0;exitX=0.5;exitY=0.84;exitDx=0;exitDy=0;exitPerimeter=0;" edge="1" parent="1" source="12" target="12">
                    <mxGeometry width="50" height="50" relative="1" as="geometry">
                        <mxPoint x="300" y="600" as="sourcePoint"/>
                        <mxPoint x="350" y="550" as="targetPoint"/>
                    </mxGeometry>
                </mxCell>
                <mxCell id="25" value="" style="endArrow=none;dashed=1;html=1;dashPattern=1 3;strokeWidth=2;fontFamily=Helvetica;fontSize=19;exitX=0.5;exitY=0.8;exitDx=0;exitDy=0;exitPerimeter=0;" edge="1" parent="1" source="13">
                    <mxGeometry width="50" height="50" relative="1" as="geometry">
                        <mxPoint x="300" y="550" as="sourcePoint"/>
                        <mxPoint x="320" y="490" as="targetPoint"/>
                        <Array as="points">
                            <mxPoint x="320" y="520"/>
                            <mxPoint x="320" y="490"/>
                        </Array>
                    </mxGeometry>
                </mxCell>
                <mxCell id="26" value="data integrity&lt;br&gt;borrowed_users&lt;br&gt;quantity&lt;br&gt;&lt;br&gt;" style="text;html=1;align=center;verticalAlign=middle;resizable=0;points=[];autosize=1;strokeColor=none;fillColor=none;fontSize=19;fontFamily=Helvetica;" vertex="1" parent="1">
                    <mxGeometry x="430" y="200" width="160" height="100" as="geometry"/>
                </mxCell>
            </root>
        </mxGraphModel>
    </diagram>
</mxfile>